<?xml version="1.0" standalone="no"?>
<!DOCTYPE svg PUBLIC "-//W3C//DTD SVG 20010904//EN"
 "http://www.w3.org/TR/2001/REC-SVG-20010904/DTD/svg10.dtd">
<svg version="1.0" xmlns="http://www.w3.org/2000/svg"
 width="200.000000pt" height="43.000000pt" viewBox="0 0 200.000000 43.000000"
 preserveAspectRatio="xMidYMid meet">

<g transform="translate(0.000000,43.000000) scale(0.100000,-0.100000)"
fill="#000000" stroke="none">
<path d="M1340 380 c0 -6 28 -10 63 -10 101 -1 140 -13 196 -60 28 -24 51 -47
51 -52 0 -4 -36 -8 -81 -8 -51 0 -78 4 -74 10 3 6 32 10 63 10 l57 1 -38 33
c-40 36 -77 46 -171 46 l-58 0 6 -31 c3 -17 6 -35 6 -40 0 -5 18 -9 40 -9 22
0 40 -4 40 -10 0 -5 -16 -10 -36 -10 -28 0 -35 -3 -32 -17 2 -12 14 -19 36
-21 40 -4 42 -22 2 -22 -16 0 -30 -3 -30 -7 0 -17 16 -31 40 -36 25 -4 25 -4
3 -12 -13 -4 -23 -14 -23 -21 0 -11 18 -14 78 -14 l78 0 13 36 c15 41 65 68
105 58 29 -7 63 -42 68 -69 4 -25 62 -34 71 -12 10 26 -18 109 -41 125 -27 18
-31 -3 -4 -25 16 -12 15 -13 -8 -11 -17 2 -26 10 -28 26 -2 14 -17 29 -40 41
-20 11 -55 38 -77 60 -21 23 -55 46 -75 51 -46 13 -200 13 -200 0z"/>
<path d="M100 290 c0 -16 7 -20 30 -20 l30 0 0 -75 c0 -68 2 -75 20 -75 18 0
20 7 20 75 0 73 1 75 25 75 18 0 25 5 25 20 0 18 -7 20 -75 20 -68 0 -75 -2
-75 -20z"/>
<path d="M280 215 c0 -88 1 -95 20 -95 16 0 20 7 20 35 0 46 22 46 49 0 13
-22 28 -35 41 -35 25 0 25 5 0 40 -19 27 -19 27 0 45 27 25 26 70 -2 89 -14
10 -44 16 -75 16 l-53 0 0 -95z m107 39 c7 -19 -13 -34 -44 -34 -18 0 -23 6
-23 25 0 21 5 25 30 25 19 0 33 -6 37 -16z"/>
<path d="M516 302 c-9 -15 -66 -163 -66 -172 0 -16 37 -11 44 5 4 10 20 15 51
15 33 0 45 -4 45 -15 0 -9 10 -15 26 -15 17 0 24 4 21 13 -3 6 -20 49 -38 95
-27 69 -36 82 -55 82 -13 0 -25 -4 -28 -8z m50 -109 c-2 -3 -15 -3 -28 -1 -24
3 -24 4 -10 38 l14 35 14 -34 c8 -19 12 -36 10 -38z"/>
<path d="M630 303 c0 -5 15 -47 34 -94 31 -76 37 -84 61 -84 24 0 30 8 61 88
19 49 34 91 34 94 0 2 -10 3 -22 1 -16 -2 -27 -19 -45 -68 -14 -36 -26 -66
-28 -68 -1 -1 -14 28 -27 65 -19 52 -31 69 -47 71 -11 2 -21 -1 -21 -5z"/>
<path d="M840 215 l0 -95 71 0 c62 0 70 2 67 17 -2 14 -15 19 -51 21 -39 3
-47 6 -47 23 0 16 7 19 44 19 29 0 46 5 49 14 5 12 -5 16 -41 18 -35 2 -48 7
-50 20 -3 14 6 17 45 20 36 2 49 7 51 21 3 15 -5 17 -67 17 l-71 0 0 -95z"/>
<path d="M1010 215 l0 -95 61 0 c52 0 60 2 57 18 -2 12 -14 18 -41 20 l-37 3
0 75 c0 67 -2 74 -20 74 -19 0 -20 -7 -20 -95z"/>
<path d="M1245 260 c-4 -6 15 -10 50 -10 35 0 54 4 50 10 -3 6 -26 10 -50 10
-24 0 -47 -4 -50 -10z"/>
<path d="M1270 200 c0 -5 20 -10 45 -10 25 0 45 5 45 10 0 6 -20 10 -45 10
-25 0 -45 -4 -45 -10z"/>
<path d="M1605 155 c-48 -47 -19 -115 48 -115 73 0 97 99 32 128 -38 17 -53
15 -80 -13z m79 -24 c27 -30 -9 -80 -48 -65 -26 10 -32 55 -11 71 25 18 39 16
59 -6z"/>
<path d="M1633 114 c-3 -8 -1 -20 5 -26 15 -15 43 8 35 28 -7 19 -32 18 -40
-2z"/>
<path d="M1305 140 c3 -5 19 -10 36 -10 16 0 29 5 29 10 0 6 -16 10 -36 10
-21 0 -33 -4 -29 -10z"/>
</g>
</svg>
