<?xml version="1.0" standalone="no"?>
<!DOCTYPE svg PUBLIC "-//W3C//DTD SVG 20010904//EN"
 "http://www.w3.org/TR/2001/REC-SVG-20010904/DTD/svg10.dtd">
<svg version="1.0" xmlns="http://www.w3.org/2000/svg"
 width="58.000000pt" height="58.000000pt" viewBox="0 0 58.000000 58.000000"
 preserveAspectRatio="xMidYMid meet">

<g transform="translate(0.000000,58.000000) scale(0.100000,-0.100000)"
fill="#ffffff" stroke="none">
<path d="M239 536 c-94 -33 -146 -109 -136 -199 5 -53 34 -127 49 -127 11 0
11 0 -12 45 -24 47 -27 133 -6 174 52 101 189 133 274 64 108 -88 93 -227 -39
-354 -34 -33 -65 -59 -70 -59 -4 0 -35 25 -67 55 -68 63 -95 74 -39 17 l38
-38 -26 -12 c-29 -13 -33 -37 -7 -51 29 -15 108 -24 144 -15 28 7 21 9 -49 14
-92 6 -124 23 -78 40 22 8 33 7 51 -5 30 -19 43 -19 66 2 24 21 71 4 61 -23
-4 -12 -2 -15 8 -12 25 8 22 37 -5 49 l-25 12 38 46 c60 71 83 125 83 191 0
67 -17 105 -66 148 -56 49 -121 62 -187 38z"/>
<path d="M240 499 c-118 -47 -134 -206 -29 -276 33 -22 47 -25 97 -21 70 5
104 27 133 86 24 49 22 106 -5 147 -25 37 -39 30 -16 -7 12 -21 20 -51 20 -80
0 -111 -135 -175 -229 -108 -43 30 -67 100 -53 148 27 90 119 127 215 87 9 -4
17 -3 17 3 0 26 -102 40 -150 21z"/>
<path d="M191 401 c-31 -43 -27 -81 11 -108 30 -21 31 -21 66 -3 34 19 35 19
60 -1 25 -19 25 -19 56 0 22 14 32 29 34 51 2 16 -1 30 -7 30 -6 0 -26 14 -44
30 -30 26 -42 30 -95 30 -56 0 -62 -2 -81 -29z m69 4 c0 -10 -10 -15 -31 -15
-27 0 -30 2 -19 15 7 8 21 15 31 15 11 0 19 -7 19 -15z m80 0 c11 -13 7 -15
-24 -15 -25 0 -36 4 -36 15 0 9 9 15 24 15 13 0 29 -7 36 -15z m64 -57 c14
-24 1 -34 -19 -14 -20 20 -39 20 -59 1 -8 -8 -23 -15 -34 -15 -11 0 -25 7 -32
15 -17 20 -47 19 -59 -2 -9 -15 -10 -14 -11 10 l0 28 101 -3 c83 -2 104 -6
113 -20z m-28 -47 c-9 -14 -33 -14 -41 -1 -4 6 -1 18 6 26 11 13 14 13 27 0 8
-8 11 -19 8 -25z m-126 8 c0 -14 -5 -19 -17 -17 -26 5 -29 38 -4 38 15 0 21
-6 21 -21z"/>
<path d="M280 350 c0 -5 5 -10 10 -10 6 0 10 5 10 10 0 6 -4 10 -10 10 -5 0
-10 -4 -10 -10z"/>
</g>
</svg>
