<?xml version="1.0" standalone="no"?>
<!DOCTYPE svg PUBLIC "-//W3C//DTD SVG 20010904//EN"
 "http://www.w3.org/TR/2001/REC-SVG-20010904/DTD/svg10.dtd">
<svg version="1.0" xmlns="http://www.w3.org/2000/svg"
 width="133.000000pt" height="58.000000pt" viewBox="0 0 133.000000 58.000000"
 preserveAspectRatio="xMidYMid meet">

<g transform="translate(0.000000,58.000000) scale(0.100000,-0.100000)"
fill="#000000" stroke="none">
<path d="M547 362 c-17 -20 -77 -132 -77 -144 0 -16 29 -8 39 10 15 28 106 30
121 2 14 -25 45 -28 35 -2 -16 42 -76 140 -89 145 -8 3 -21 -2 -29 -11z m41
-56 c10 -22 8 -24 -19 -28 -31 -5 -35 2 -19 33 14 25 24 24 38 -5z"/>
<path d="M843 368 c-5 -7 -23 -37 -39 -65 -16 -29 -31 -53 -34 -53 -3 0 -20
27 -38 60 -19 33 -40 60 -48 60 -21 0 -18 -12 25 -87 53 -94 71 -93 124 5 25
47 36 77 30 83 -6 6 -13 5 -20 -3z"/>
<path d="M1115 368 c-3 -8 -5 -46 -3 -84 l3 -69 78 -3 c61 -2 78 0 75 10 -3 8
-26 14 -61 16 l-57 3 -1 49 c-2 66 -2 67 -16 81 -10 10 -14 9 -18 -3z"/>
<path d="M52 358 c3 -7 21 -14 41 -16 l37 -3 0 -65 c0 -50 3 -64 15 -64 12 0
15 14 15 65 l0 65 35 0 c24 0 35 5 35 15 0 12 -17 15 -91 15 -68 0 -90 -3 -87
-12z"/>
<path d="M270 290 c0 -63 3 -80 14 -80 9 0 16 12 18 28 5 41 49 43 78 3 21
-31 50 -42 50 -19 0 6 -8 20 -17 31 -17 18 -17 19 0 28 20 11 23 59 5 77 -7 7
-40 12 -80 12 l-68 0 0 -80z m125 30 c0 -11 -13 -16 -47 -18 -43 -3 -48 -1
-48 18 0 19 5 21 48 18 34 -2 47 -7 47 -18z"/>
<path d="M910 290 l0 -81 75 3 c92 4 104 22 17 26 -53 3 -63 6 -60 20 2 13 15
18 51 20 33 2 47 7 47 18 0 10 -13 14 -50 14 -37 0 -50 4 -50 15 0 10 16 15
62 17 38 2 63 8 66 16 3 9 -17 12 -77 12 l-81 0 0 -80z"/>
</g>
</svg>
