<?xml version="1.0" standalone="no"?>
<!DOCTYPE svg PUBLIC "-//W3C//DTD SVG 20010904//EN"
 "http://www.w3.org/TR/2001/REC-SVG-20010904/DTD/svg10.dtd">
<svg version="1.0" xmlns="http://www.w3.org/2000/svg"
 width="200.000000pt" height="58.000000pt" viewBox="0 0 200.000000 58.000000"
 preserveAspectRatio="xMidYMid meet">

<g transform="translate(0.000000,58.000000) scale(0.100000,-0.100000)"
fill="#ffffff" stroke="none">
<path d="M239 536 c-94 -33 -146 -109 -136 -199 5 -53 34 -127 49 -127 11 0
11 0 -12 45 -24 47 -27 133 -6 173 58 110 201 137 290 54 91 -86 69 -223 -55
-343 -34 -33 -65 -59 -70 -59 -4 0 -35 25 -67 55 -68 63 -95 74 -39 17 l38
-38 -26 -12 c-29 -13 -33 -37 -7 -51 29 -15 108 -24 144 -15 28 7 21 9 -49 14
-92 6 -124 23 -78 40 22 8 33 7 51 -5 30 -19 43 -19 66 2 24 21 71 4 61 -23
-4 -12 -2 -15 8 -12 25 8 22 37 -5 49 l-25 12 38 46 c60 71 83 125 83 191 0
67 -17 105 -66 148 -56 49 -121 62 -187 38z"/>
<path d="M240 499 c-118 -47 -134 -206 -29 -276 33 -22 47 -25 99 -21 52 4 65
9 95 38 57 56 70 136 30 196 -24 36 -38 29 -15 -8 12 -21 20 -51 20 -80 0
-111 -135 -175 -229 -108 -43 30 -67 100 -53 148 27 90 119 127 215 87 9 -4
17 -3 17 3 0 26 -102 40 -150 21z"/>
<path d="M191 401 c-31 -43 -27 -81 11 -108 30 -21 31 -21 66 -3 34 19 35 19
60 -1 25 -19 25 -19 56 0 22 14 32 29 34 51 2 16 -1 30 -7 30 -6 0 -26 14 -44
30 -30 26 -42 30 -95 30 -56 0 -62 -2 -81 -29z m69 4 c0 -10 -10 -15 -31 -15
-27 0 -30 2 -19 15 7 8 21 15 31 15 11 0 19 -7 19 -15z m80 0 c11 -13 7 -15
-24 -15 -25 0 -36 4 -36 15 0 9 9 15 24 15 13 0 29 -7 36 -15z m64 -57 c14
-24 1 -34 -19 -14 -20 20 -39 20 -59 1 -8 -8 -23 -15 -34 -15 -11 0 -25 7 -32
15 -17 20 -47 19 -59 -2 -9 -15 -10 -14 -11 10 l0 28 101 -3 c83 -2 104 -6
113 -20z m-28 -47 c-9 -14 -33 -14 -41 -1 -4 6 -1 18 6 26 11 13 14 13 27 0 8
-8 11 -19 8 -25z m-126 8 c0 -14 -5 -19 -17 -17 -26 5 -29 38 -4 38 15 0 21
-6 21 -21z"/>
<path d="M280 350 c0 -5 5 -10 10 -10 6 0 10 5 10 10 0 6 -4 10 -10 10 -5 0
-10 -4 -10 -10z"/>
<path d="M1097 362 c-17 -20 -77 -132 -77 -144 0 -16 30 -7 40 12 8 16 21 20
60 20 39 0 52 -4 60 -20 14 -25 45 -28 35 -2 -16 42 -76 140 -89 145 -8 3 -21
-2 -29 -11z m41 -56 c10 -22 8 -24 -19 -28 -31 -5 -35 2 -19 33 14 25 24 24
38 -5z"/>
<path d="M1225 368 c-3 -8 12 -45 32 -83 31 -57 43 -70 63 -70 19 0 31 13 63
73 27 51 36 77 29 84 -10 10 -47 -39 -74 -98 -6 -13 -14 -24 -17 -24 -4 0 -21
27 -39 60 -36 65 -49 78 -57 58z"/>
<path d="M602 358 c3 -7 21 -14 41 -16 l37 -3 0 -65 c0 -50 3 -64 15 -64 12 0
15 14 15 65 l0 65 35 0 c24 0 35 5 35 15 0 12 -17 15 -91 15 -68 0 -90 -3 -87
-12z"/>
<path d="M820 290 c0 -63 3 -80 14 -80 9 0 16 12 18 28 5 41 49 43 78 3 21
-31 50 -42 50 -19 0 6 -8 20 -17 31 -17 18 -17 19 0 28 20 11 23 59 5 77 -7 7
-40 12 -80 12 l-68 0 0 -80z m125 30 c0 -11 -13 -16 -47 -18 -43 -3 -48 -1
-48 18 0 19 5 21 48 18 34 -2 47 -7 47 -18z"/>
<path d="M1460 290 l0 -81 75 3 c92 4 104 22 17 26 -53 3 -63 6 -60 20 2 13
15 18 51 20 33 2 47 7 47 18 0 10 -13 14 -50 14 -37 0 -50 4 -50 15 0 10 16
15 62 17 38 2 63 8 66 16 3 9 -17 12 -77 12 l-81 0 0 -80z"/>
<path d="M1662 293 l3 -78 78 -3 c61 -2 78 0 75 10 -3 8 -26 14 -61 16 l-57 3
-1 49 c-2 73 -2 74 -22 78 -16 3 -18 -4 -15 -75z"/>
</g>
</svg>
