<?xml version="1.0" standalone="no"?>
<svg xmlns:xlink="http://www.w3.org/1999/xlink" id="wave" style="transform:rotate(0deg); transition: 0.3s" viewBox="0 0 1440 280" version="1.1" xmlns="http://www.w3.org/2000/svg"><defs><linearGradient id="sw-gradient-0" x1="0" x2="0" y1="1" y2="0"><stop stop-color="rgba(243, 106, 62, 1)" offset="0%"/><stop stop-color="rgba(255, 179, 11, 1)" offset="100%"/></linearGradient></defs><path style="transform:translate(0, 0px); opacity:1" fill="url(#sw-gradient-0)" d="M0,168L120,154C240,140,480,112,720,88.7C960,65,1200,47,1440,70C1680,93,1920,159,2160,168C2400,177,2640,131,2880,112C3120,93,3360,103,3600,126C3840,149,4080,187,4320,168C4560,149,4800,75,5040,65.3C5280,56,5520,112,5760,116.7C6000,121,6240,75,6480,56C6720,37,6960,47,7200,42C7440,37,7680,19,7920,9.3C8160,0,8400,0,8640,23.3C8880,47,9120,93,9360,107.3C9600,121,9840,103,10080,102.7C10320,103,10560,121,10800,130.7C11040,140,11280,140,11520,140C11760,140,12000,140,12240,135.3C12480,131,12720,121,12960,112C13200,103,13440,93,13680,88.7C13920,84,14160,84,14400,74.7C14640,65,14880,47,15120,46.7C15360,47,15600,65,15840,88.7C16080,112,16320,140,16560,144.7C16800,149,17040,131,17160,121.3L17280,112L17280,280L17160,280C17040,280,16800,280,16560,280C16320,280,16080,280,15840,280C15600,280,15360,280,15120,280C14880,280,14640,280,14400,280C14160,280,13920,280,13680,280C13440,280,13200,280,12960,280C12720,280,12480,280,12240,280C12000,280,11760,280,11520,280C11280,280,11040,280,10800,280C10560,280,10320,280,10080,280C9840,280,9600,280,9360,280C9120,280,8880,280,8640,280C8400,280,8160,280,7920,280C7680,280,7440,280,7200,280C6960,280,6720,280,6480,280C6240,280,6000,280,5760,280C5520,280,5280,280,5040,280C4800,280,4560,280,4320,280C4080,280,3840,280,3600,280C3360,280,3120,280,2880,280C2640,280,2400,280,2160,280C1920,280,1680,280,1440,280C1200,280,960,280,720,280C480,280,240,280,120,280L0,280Z"/><defs><linearGradient id="sw-gradient-1" x1="0" x2="0" y1="1" y2="0"><stop stop-color="rgba(243, 106, 62, 1)" offset="0%"/><stop stop-color="rgba(255, 179, 11, 1)" offset="100%"/></linearGradient></defs><path style="transform:translate(0, 50px); opacity:0.9" fill="url(#sw-gradient-1)" d="M0,0L120,32.7C240,65,480,131,720,130.7C960,131,1200,65,1440,74.7C1680,84,1920,168,2160,186.7C2400,205,2640,159,2880,140C3120,121,3360,131,3600,140C3840,149,4080,159,4320,135.3C4560,112,4800,56,5040,65.3C5280,75,5520,149,5760,172.7C6000,196,6240,168,6480,158.7C6720,149,6960,159,7200,135.3C7440,112,7680,56,7920,56C8160,56,8400,112,8640,149.3C8880,187,9120,205,9360,177.3C9600,149,9840,75,10080,37.3C10320,0,10560,0,10800,28C11040,56,11280,112,11520,112C11760,112,12000,56,12240,70C12480,84,12720,168,12960,182C13200,196,13440,140,13680,112C13920,84,14160,84,14400,79.3C14640,75,14880,65,15120,51.3C15360,37,15600,19,15840,37.3C16080,56,16320,112,16560,130.7C16800,149,17040,131,17160,121.3L17280,112L17280,280L17160,280C17040,280,16800,280,16560,280C16320,280,16080,280,15840,280C15600,280,15360,280,15120,280C14880,280,14640,280,14400,280C14160,280,13920,280,13680,280C13440,280,13200,280,12960,280C12720,280,12480,280,12240,280C12000,280,11760,280,11520,280C11280,280,11040,280,10800,280C10560,280,10320,280,10080,280C9840,280,9600,280,9360,280C9120,280,8880,280,8640,280C8400,280,8160,280,7920,280C7680,280,7440,280,7200,280C6960,280,6720,280,6480,280C6240,280,6000,280,5760,280C5520,280,5280,280,5040,280C4800,280,4560,280,4320,280C4080,280,3840,280,3600,280C3360,280,3120,280,2880,280C2640,280,2400,280,2160,280C1920,280,1680,280,1440,280C1200,280,960,280,720,280C480,280,240,280,120,280L0,280Z"/></svg>